<mxfile host="Electron" modified="2023-05-05T05:47:13.568Z" agent="Mozilla/5.0 (Windows NT 10.0; Win64; x64) AppleWebKit/537.36 (KHTML, like Gecko) draw.io/21.1.2 Chrome/106.0.5249.199 Electron/21.4.3 Safari/537.36" etag="iZhT4KEVFOvq-lH99mdk" version="21.1.2" type="device">
  <diagram name="Page-1" id="5WaFWf9Ar_kI24NeDUUu">
    <mxGraphModel dx="1050" dy="1729" grid="1" gridSize="10" guides="1" tooltips="1" connect="1" arrows="1" fold="1" page="1" pageScale="1" pageWidth="850" pageHeight="1100" math="0" shadow="0">
      <root>
        <mxCell id="0" />
        <mxCell id="1" parent="0" />
        <mxCell id="KsSwXlS3xp-dVk0PxJ3p-1" value="" style="rounded=0;whiteSpace=wrap;html=1;fillColor=#d5e8d4;strokeColor=#82b366;" vertex="1" parent="1">
          <mxGeometry x="170" y="160" width="120" height="60" as="geometry" />
        </mxCell>
        <mxCell id="KsSwXlS3xp-dVk0PxJ3p-2" value="" style="rounded=0;whiteSpace=wrap;html=1;fillColor=#d5e8d4;strokeColor=#82b366;" vertex="1" parent="1">
          <mxGeometry x="500" y="20" width="120" height="60" as="geometry" />
        </mxCell>
        <mxCell id="KsSwXlS3xp-dVk0PxJ3p-3" value="" style="rounded=0;whiteSpace=wrap;html=1;fillColor=#d5e8d4;strokeColor=#82b366;" vertex="1" parent="1">
          <mxGeometry x="500" y="160" width="120" height="60" as="geometry" />
        </mxCell>
        <mxCell id="KsSwXlS3xp-dVk0PxJ3p-4" value="" style="rounded=0;whiteSpace=wrap;html=1;fillColor=#d5e8d4;strokeColor=#82b366;" vertex="1" parent="1">
          <mxGeometry x="500" y="310" width="120" height="60" as="geometry" />
        </mxCell>
        <mxCell id="KsSwXlS3xp-dVk0PxJ3p-5" value="&lt;b&gt;API-GATEWAY&lt;/b&gt;" style="text;html=1;strokeColor=none;fillColor=none;align=center;verticalAlign=middle;whiteSpace=wrap;rounded=0;" vertex="1" parent="1">
          <mxGeometry x="180" y="175" width="100" height="30" as="geometry" />
        </mxCell>
        <mxCell id="KsSwXlS3xp-dVk0PxJ3p-6" value="&lt;b&gt;CUSTOMER-SERV.&lt;/b&gt;" style="text;html=1;strokeColor=none;fillColor=none;align=center;verticalAlign=middle;whiteSpace=wrap;rounded=0;" vertex="1" parent="1">
          <mxGeometry x="505" y="35" width="110" height="30" as="geometry" />
        </mxCell>
        <mxCell id="KsSwXlS3xp-dVk0PxJ3p-7" value="&lt;b&gt;VENDOR-SERV.&lt;/b&gt;" style="text;html=1;strokeColor=none;fillColor=none;align=center;verticalAlign=middle;whiteSpace=wrap;rounded=0;" vertex="1" parent="1">
          <mxGeometry x="505" y="175" width="110" height="30" as="geometry" />
        </mxCell>
        <mxCell id="KsSwXlS3xp-dVk0PxJ3p-8" value="&lt;b&gt;ADMIN-SERV.&lt;/b&gt;" style="text;html=1;strokeColor=none;fillColor=none;align=center;verticalAlign=middle;whiteSpace=wrap;rounded=0;" vertex="1" parent="1">
          <mxGeometry x="505" y="325" width="110" height="30" as="geometry" />
        </mxCell>
        <mxCell id="KsSwXlS3xp-dVk0PxJ3p-9" value="" style="shape=cylinder3;whiteSpace=wrap;html=1;boundedLbl=1;backgroundOutline=1;size=15;fillColor=#f8cecc;strokeColor=#b85450;" vertex="1" parent="1">
          <mxGeometry x="680" width="60" height="80" as="geometry" />
        </mxCell>
        <mxCell id="KsSwXlS3xp-dVk0PxJ3p-10" value="" style="shape=cylinder3;whiteSpace=wrap;html=1;boundedLbl=1;backgroundOutline=1;size=15;fillColor=#fff2cc;strokeColor=#d6b656;" vertex="1" parent="1">
          <mxGeometry x="675" y="150" width="70" height="80" as="geometry" />
        </mxCell>
        <mxCell id="KsSwXlS3xp-dVk0PxJ3p-11" value="" style="shape=cylinder3;whiteSpace=wrap;html=1;boundedLbl=1;backgroundOutline=1;size=15;fillColor=#f8cecc;strokeColor=#b85450;" vertex="1" parent="1">
          <mxGeometry x="675" y="295" width="80" height="90" as="geometry" />
        </mxCell>
        <mxCell id="KsSwXlS3xp-dVk0PxJ3p-12" value="&lt;b&gt;MYSQL&lt;/b&gt;" style="text;html=1;strokeColor=none;fillColor=none;align=center;verticalAlign=middle;whiteSpace=wrap;rounded=0;" vertex="1" parent="1">
          <mxGeometry x="680" y="35" width="60" height="30" as="geometry" />
        </mxCell>
        <mxCell id="KsSwXlS3xp-dVk0PxJ3p-13" value="&lt;b&gt;POSTGRES&lt;/b&gt;" style="text;html=1;strokeColor=none;fillColor=none;align=center;verticalAlign=middle;whiteSpace=wrap;rounded=0;" vertex="1" parent="1">
          <mxGeometry x="685" y="340" width="60" height="30" as="geometry" />
        </mxCell>
        <mxCell id="KsSwXlS3xp-dVk0PxJ3p-14" value="&lt;b&gt;MONGO&lt;/b&gt;" style="text;html=1;strokeColor=none;fillColor=none;align=center;verticalAlign=middle;whiteSpace=wrap;rounded=0;" vertex="1" parent="1">
          <mxGeometry x="680" y="190" width="60" height="30" as="geometry" />
        </mxCell>
        <mxCell id="KsSwXlS3xp-dVk0PxJ3p-15" value="" style="rounded=0;whiteSpace=wrap;html=1;fillColor=#d5e8d4;strokeColor=#82b366;" vertex="1" parent="1">
          <mxGeometry x="330" y="-180" width="120" height="60" as="geometry" />
        </mxCell>
        <mxCell id="KsSwXlS3xp-dVk0PxJ3p-16" value="&lt;b&gt;CONSUL&lt;/b&gt;" style="text;html=1;strokeColor=none;fillColor=none;align=center;verticalAlign=middle;whiteSpace=wrap;rounded=0;" vertex="1" parent="1">
          <mxGeometry x="360" y="-165" width="60" height="30" as="geometry" />
        </mxCell>
        <mxCell id="KsSwXlS3xp-dVk0PxJ3p-17" value="" style="endArrow=none;html=1;rounded=0;exitX=0.593;exitY=-0.027;exitDx=0;exitDy=0;exitPerimeter=0;entryX=0.5;entryY=1;entryDx=0;entryDy=0;" edge="1" parent="1" source="KsSwXlS3xp-dVk0PxJ3p-1" target="KsSwXlS3xp-dVk0PxJ3p-15">
          <mxGeometry width="50" height="50" relative="1" as="geometry">
            <mxPoint x="420" y="20" as="sourcePoint" />
            <mxPoint x="470" y="-30" as="targetPoint" />
          </mxGeometry>
        </mxCell>
        <mxCell id="KsSwXlS3xp-dVk0PxJ3p-18" value="" style="endArrow=none;html=1;rounded=0;entryX=0.627;entryY=1;entryDx=0;entryDy=0;entryPerimeter=0;exitX=0;exitY=0.75;exitDx=0;exitDy=0;" edge="1" parent="1" source="KsSwXlS3xp-dVk0PxJ3p-2" target="KsSwXlS3xp-dVk0PxJ3p-15">
          <mxGeometry width="50" height="50" relative="1" as="geometry">
            <mxPoint x="420" y="120" as="sourcePoint" />
            <mxPoint x="470" y="70" as="targetPoint" />
          </mxGeometry>
        </mxCell>
        <mxCell id="KsSwXlS3xp-dVk0PxJ3p-19" value="" style="endArrow=none;html=1;rounded=0;entryX=0.58;entryY=1.013;entryDx=0;entryDy=0;entryPerimeter=0;exitX=0;exitY=0.5;exitDx=0;exitDy=0;" edge="1" parent="1" source="KsSwXlS3xp-dVk0PxJ3p-3" target="KsSwXlS3xp-dVk0PxJ3p-15">
          <mxGeometry width="50" height="50" relative="1" as="geometry">
            <mxPoint x="420" y="120" as="sourcePoint" />
            <mxPoint x="470" y="70" as="targetPoint" />
          </mxGeometry>
        </mxCell>
        <mxCell id="KsSwXlS3xp-dVk0PxJ3p-20" value="" style="endArrow=none;html=1;rounded=0;entryX=0.5;entryY=1;entryDx=0;entryDy=0;exitX=0;exitY=0.5;exitDx=0;exitDy=0;" edge="1" parent="1" source="KsSwXlS3xp-dVk0PxJ3p-4" target="KsSwXlS3xp-dVk0PxJ3p-15">
          <mxGeometry width="50" height="50" relative="1" as="geometry">
            <mxPoint x="420" y="120" as="sourcePoint" />
            <mxPoint x="470" y="70" as="targetPoint" />
          </mxGeometry>
        </mxCell>
        <mxCell id="KsSwXlS3xp-dVk0PxJ3p-21" value="" style="endArrow=none;html=1;rounded=0;entryX=1;entryY=0.5;entryDx=0;entryDy=0;exitX=0;exitY=0.5;exitDx=0;exitDy=0;" edge="1" parent="1" source="KsSwXlS3xp-dVk0PxJ3p-12" target="KsSwXlS3xp-dVk0PxJ3p-2">
          <mxGeometry width="50" height="50" relative="1" as="geometry">
            <mxPoint x="420" y="220" as="sourcePoint" />
            <mxPoint x="470" y="170" as="targetPoint" />
          </mxGeometry>
        </mxCell>
        <mxCell id="KsSwXlS3xp-dVk0PxJ3p-22" value="" style="endArrow=none;html=1;rounded=0;entryX=1;entryY=0.5;entryDx=0;entryDy=0;exitX=0;exitY=0.25;exitDx=0;exitDy=0;" edge="1" parent="1" source="KsSwXlS3xp-dVk0PxJ3p-14" target="KsSwXlS3xp-dVk0PxJ3p-3">
          <mxGeometry width="50" height="50" relative="1" as="geometry">
            <mxPoint x="670" y="190" as="sourcePoint" />
            <mxPoint x="470" y="170" as="targetPoint" />
          </mxGeometry>
        </mxCell>
        <mxCell id="KsSwXlS3xp-dVk0PxJ3p-24" value="" style="endArrow=none;html=1;rounded=0;entryX=1;entryY=0.5;entryDx=0;entryDy=0;exitX=0;exitY=0.5;exitDx=0;exitDy=0;exitPerimeter=0;" edge="1" parent="1" source="KsSwXlS3xp-dVk0PxJ3p-11" target="KsSwXlS3xp-dVk0PxJ3p-4">
          <mxGeometry width="50" height="50" relative="1" as="geometry">
            <mxPoint x="420" y="220" as="sourcePoint" />
            <mxPoint x="470" y="170" as="targetPoint" />
          </mxGeometry>
        </mxCell>
        <mxCell id="KsSwXlS3xp-dVk0PxJ3p-25" value="" style="endArrow=none;html=1;rounded=0;entryX=1;entryY=0.75;entryDx=0;entryDy=0;exitX=0;exitY=0.5;exitDx=0;exitDy=0;exitPerimeter=0;" edge="1" parent="1" source="KsSwXlS3xp-dVk0PxJ3p-11" target="KsSwXlS3xp-dVk0PxJ3p-3">
          <mxGeometry width="50" height="50" relative="1" as="geometry">
            <mxPoint x="680" y="330" as="sourcePoint" />
            <mxPoint x="470" y="170" as="targetPoint" />
          </mxGeometry>
        </mxCell>
        <mxCell id="KsSwXlS3xp-dVk0PxJ3p-26" value="" style="rounded=0;whiteSpace=wrap;html=1;fillColor=#d5e8d4;strokeColor=#82b366;" vertex="1" parent="1">
          <mxGeometry x="500" y="-110" width="120" height="60" as="geometry" />
        </mxCell>
        <mxCell id="KsSwXlS3xp-dVk0PxJ3p-28" value="&lt;b&gt;SECURITY-SERV.&lt;/b&gt;" style="text;html=1;strokeColor=none;fillColor=none;align=center;verticalAlign=middle;whiteSpace=wrap;rounded=0;" vertex="1" parent="1">
          <mxGeometry x="510" y="-95" width="100" height="30" as="geometry" />
        </mxCell>
        <mxCell id="KsSwXlS3xp-dVk0PxJ3p-29" value="" style="endArrow=none;html=1;rounded=0;entryX=1;entryY=0.5;entryDx=0;entryDy=0;" edge="1" parent="1" target="KsSwXlS3xp-dVk0PxJ3p-26">
          <mxGeometry width="50" height="50" relative="1" as="geometry">
            <mxPoint x="680" y="-80" as="sourcePoint" />
            <mxPoint x="470" y="60" as="targetPoint" />
          </mxGeometry>
        </mxCell>
        <mxCell id="KsSwXlS3xp-dVk0PxJ3p-30" value="" style="shape=cylinder3;whiteSpace=wrap;html=1;boundedLbl=1;backgroundOutline=1;size=15;fillColor=#f8cecc;strokeColor=#b85450;" vertex="1" parent="1">
          <mxGeometry x="680" y="-120" width="60" height="80" as="geometry" />
        </mxCell>
        <mxCell id="KsSwXlS3xp-dVk0PxJ3p-31" value="&lt;b&gt;MYSQL&lt;/b&gt;" style="text;html=1;strokeColor=none;fillColor=none;align=center;verticalAlign=middle;whiteSpace=wrap;rounded=0;" vertex="1" parent="1">
          <mxGeometry x="680" y="-80" width="60" height="30" as="geometry" />
        </mxCell>
      </root>
    </mxGraphModel>
  </diagram>
</mxfile>
